<svg height="512pt" viewBox="0 -69 512.001 512" width="512pt" xmlns="http://www.w3.org/2000/svg"><path d="M511.992 141.082H0v76.676c0 61.105 40.055 117.41 101.684 135.316 100.957 29.332 207.675 29.332 308.628 0 58.899-17.11 98.075-69.281 101.442-127.203zm0 0" fill="#b2785b"/><path d="M0 141.082v76.676c0 61.105 40.055 117.414 101.684 135.316 72.3 21.008 147.554 26.969 221.53 17.887 7.087-36.352-7.194-75.836-7.194-75.836V141.082zm0 0" fill="#935b45"/><path d="M0 141.082C0 27.188 104.777 29.246 180.352 47.984c58.937 14.61 101.808-27.972 151.296-42.347 74.77-21.727 152.993 21.277 174.715 96.05 21.727 74.77-21.281 152.993-96.05 174.715-100.954 29.328-207.672 29.328-308.625 0C40.054 258.496 0 202.187 0 141.082zm0 0" fill="#fce6d4"/><path d="M180.367 47.988C104.793 29.25 0 27.195 0 141.094c0 61.105 40.055 117.41 101.684 135.316 69.957 20.324 142.68 26.555 214.336 18.711-54.735-87.23-152.61-56.816-180.864-137.664-31.488-90.102 45.211-109.469 45.211-109.469zm0 0" fill="#efd4bf"/><path d="M256 256.105c-165.152 0-213.703-71.44-213.703-115.023 0-8.648 0-63.531 66.308-60.484 17.993.828 84.57 12.687 96.11 12.687 39.066 0 70.77-15.781 98.742-29.71 14.148-7.048 46.55-21.282 67.59-21.282 43.582 0 82.523 29.277 94.703 71.191 7.355 25.317 4.41 51.977-8.29 75.079-12.698 23.097-68.655 67.542-201.46 67.542zm0 0" fill="#f2b4b1"/><path d="M416.988 139.879c0 23.207-18.812 42.02-42.02 42.02-23.202 0-42.015-18.813-42.015-42.02 0-23.203 18.813-42.016 42.016-42.016 23.207 0 42.02 18.813 42.02 42.016zm0 0" fill="#fff"/><path d="M135.156 157.445c-11.687-33.441-8.469-57.129.196-73.71-11.446-1.633-21.313-2.887-26.747-3.137-66.308-3.047-66.308 51.836-66.308 60.484 0 43.582 48.55 115.023 213.703 115.023 8.176 0 16.047-.168 23.645-.492-54.11-40.078-121.782-33.187-144.489-98.168zm0 0" fill="#eaa2a2"/></svg>